<svg width="404" height="199" viewBox="0 0 404 199" fill="none" xmlns="http://www.w3.org/2000/svg">
<rect width="403.353" height="198.353" rx="20" fill="#0D0D12"/>
<path d="M25.5796 36.6765H18.8999V35.2966H21.4663V25.3738H18.8999V23.9939H25.5796V25.3738H23.0132V35.2966H25.5796V36.6765ZM28.8688 36.6765V27.1404H30.3014V28.8191H30.4244C30.9342 27.6326 32.024 26.9646 33.4742 26.9646C35.5485 26.9646 36.6735 28.2039 36.6735 30.489V36.6765H35.1793V30.8669C35.1793 29.1443 34.4762 28.3357 32.9908 28.3357C31.4176 28.3357 30.3629 29.4343 30.3629 31.0603V36.6765H28.8688ZM38.9958 27.1404H40.5954L43.2585 35.0769H43.3728L46.0183 27.1404H47.6091L44.1286 36.6765H42.4851L38.9958 27.1404ZM53.8338 36.8523C51.3114 36.8523 49.703 35.2087 49.703 32.6335V31.1921C49.703 28.6169 51.3114 26.9734 53.8338 26.9734C56.3563 26.9734 57.9647 28.6169 57.9647 31.1921V32.6335C57.9647 35.2087 56.3563 36.8523 53.8338 36.8523ZM53.8338 28.2917C52.1991 28.2917 51.1795 29.4519 51.1795 31.324V32.4929C51.1795 34.3738 52.1991 35.5251 53.8338 35.5251C55.4686 35.5251 56.4881 34.3738 56.4881 32.4929V31.324C56.4881 29.4519 55.4686 28.2917 53.8338 28.2917ZM64.5322 24.8025C63.8291 24.8025 63.2929 24.2751 63.2929 23.572C63.2929 22.8777 63.8291 22.3503 64.5322 22.3503C65.2353 22.3503 65.7715 22.8777 65.7715 23.572C65.7715 24.2751 65.2353 24.8025 64.5322 24.8025ZM68.5312 36.6765H60.6299V35.4373H63.8994V28.3796H60.6562V27.1404H65.3759V35.4373H68.5312V36.6765ZM78.8692 30.1111H77.3927C77.2081 28.9949 76.2765 28.2917 75.046 28.2917C73.3849 28.2917 72.462 29.4255 72.462 31.4734V32.3347C72.462 34.3826 73.3849 35.5076 75.046 35.5076C76.2765 35.5076 77.2081 34.8132 77.3927 33.7234H78.8692C78.6319 35.6658 77.1817 36.8523 75.0724 36.8523C72.4796 36.8523 70.9679 35.2615 70.9679 32.5281V31.28C70.9679 28.5466 72.4796 26.9558 75.0724 26.9558C77.1817 26.9558 78.6231 28.1511 78.8692 30.1111ZM88.0031 34.2156H89.4533C89.1633 35.7888 87.6516 36.8523 85.6477 36.8523C83.0285 36.8523 81.508 35.2791 81.508 32.5632V31.1306C81.508 28.6169 83.1164 26.9646 85.5422 26.9646C88.0207 26.9646 89.4797 28.6082 89.4797 31.3679V32.2996H82.9846V32.6863C82.9846 34.4353 84.0217 35.5603 85.6477 35.5603C86.8518 35.5603 87.7395 35.0505 88.0031 34.2156ZM85.5334 28.2478C83.9426 28.2478 82.9846 29.3376 82.9846 31.1658H88.0031C88.0031 29.3464 87.0715 28.2478 85.5334 28.2478ZM54.4315 53.9822C56.6376 53.9822 58.079 55.573 58.079 58.0251V59.8005C58.079 62.2439 56.6376 63.8347 54.4315 63.8347C53.0516 63.8347 52.0409 63.2458 51.6278 62.2H51.4608V66.8933H49.9403V54.1404H51.4168V55.5994H51.5751C52.076 54.5447 53.0692 53.9822 54.4315 53.9822ZM54.0008 55.3533C52.4276 55.3533 51.4256 56.4783 51.4256 58.2361V59.6072C51.4256 61.3738 52.4276 62.4988 54.0008 62.4988C55.5741 62.4988 56.576 61.365 56.576 59.6072V58.2361C56.576 56.4783 55.5741 55.3533 54.0008 55.3533ZM63.3984 63.8435C61.5791 63.8435 60.3662 62.7009 60.3662 60.9695C60.3662 59.282 61.5791 58.28 63.75 58.1658L66.3691 58.0339V57.1726C66.3691 55.9773 65.6396 55.3181 64.3125 55.3181C63.2138 55.3181 62.4404 55.7839 62.1943 56.6013H60.7265C60.9023 55.072 62.3789 54.0261 64.33 54.0261C66.5713 54.0261 67.8545 55.1687 67.8545 57.155V63.6853H66.4306V62.2527H66.2812C65.8242 63.2722 64.7871 63.8435 63.3984 63.8435ZM63.8291 62.5339C65.2705 62.5339 66.3691 61.5759 66.3691 60.3015V59.1765L63.917 59.2908C62.581 59.3523 61.8779 59.9236 61.8779 60.9167C61.8779 61.9187 62.625 62.5339 63.8291 62.5339ZM72.2247 67.0691C72.005 67.0691 71.7149 67.0603 71.5831 67.0427V65.7332C71.6974 65.7595 71.9698 65.7683 72.1104 65.7683C73.0069 65.7683 73.4991 65.364 73.8946 64.2566L74.0616 63.738L70.5548 54.1404H72.1808L74.8526 62.1208H74.9669L77.63 54.1404H79.2208L75.6261 64.0281C74.7911 66.3748 73.9913 67.0691 72.2247 67.0691ZM89.594 63.6765H81.6926V62.4373H84.9533V51.6355H81.719V50.3962H86.4475V62.4373H89.594V63.6765ZM95.9593 63.8523C93.4368 63.8523 91.8284 62.2087 91.8284 59.6335V58.1921C91.8284 55.6169 93.4368 53.9734 95.9593 53.9734C98.4818 53.9734 100.09 55.6169 100.09 58.1921V59.6335C100.09 62.2087 98.4818 63.8523 95.9593 63.8523ZM95.9593 55.2917C94.3245 55.2917 93.305 56.4519 93.305 58.324V59.4929C93.305 61.3738 94.3245 62.5251 95.9593 62.5251C97.5941 62.5251 98.6136 61.3738 98.6136 59.4929V58.324C98.6136 56.4519 97.5941 55.2917 95.9593 55.2917ZM105.524 63.8435C103.705 63.8435 102.492 62.7009 102.492 60.9695C102.492 59.282 103.705 58.28 105.875 58.1658L108.495 58.0339V57.1726C108.495 55.9773 107.765 55.3181 106.438 55.3181C105.339 55.3181 104.566 55.7839 104.32 56.6013H102.852C103.028 55.072 104.504 54.0261 106.456 54.0261C108.697 54.0261 109.98 55.1687 109.98 57.155V63.6853H108.556V62.2527H108.407C107.95 63.2722 106.913 63.8435 105.524 63.8435ZM105.955 62.5339C107.396 62.5339 108.495 61.5759 108.495 60.3015V59.1765L106.042 59.2908C104.706 59.3523 104.003 59.9236 104.003 60.9167C104.003 61.9187 104.75 62.5339 105.955 62.5339ZM116.424 63.8347C114.218 63.8347 112.777 62.2439 112.777 59.7917V58.0164C112.777 55.573 114.218 53.9822 116.424 53.9822C117.804 53.9822 118.824 54.571 119.237 55.6169H119.395V50.3962H120.916V63.6765H119.448V62.2175H119.281C118.789 63.2722 117.787 63.8347 116.424 63.8347ZM116.864 62.4724C118.428 62.4724 119.439 61.3474 119.439 59.5808V58.2097C119.439 56.4519 118.428 55.3269 116.864 55.3269C115.291 55.3269 114.28 56.4519 114.28 58.2097V59.5808C114.28 61.3386 115.291 62.4724 116.864 62.4724ZM127.553 56.9792C126.683 56.9792 125.963 56.241 125.963 55.3533C125.963 54.4656 126.683 53.7273 127.553 53.7273C128.424 53.7273 129.144 54.4656 129.144 55.3533C129.144 56.241 128.424 56.9792 127.553 56.9792ZM127.553 63.7292C126.683 63.7292 125.963 62.9998 125.963 62.1033C125.963 61.2156 126.683 60.4861 127.553 60.4861C128.424 60.4861 129.144 61.2156 129.144 62.1033C129.144 62.9998 128.424 63.7292 127.553 63.7292ZM50.3622 84.7156C50.3622 83.0632 51.7684 81.9558 53.869 81.9558C55.8553 81.9558 57.2001 82.949 57.3758 84.5398H55.9344C55.7586 83.7048 54.9588 83.1951 53.8426 83.1951C52.6297 83.1951 51.8475 83.7576 51.8475 84.6277C51.8475 85.3572 52.3397 85.7703 53.535 86.0339L54.8797 86.3416C56.7342 86.7634 57.578 87.572 57.578 88.9519C57.578 90.7097 56.1102 91.8523 53.8514 91.8523C51.6893 91.8523 50.2567 90.8416 50.0897 89.2068H51.6102C51.8299 90.0857 52.6737 90.5955 53.9042 90.5955C55.2049 90.5955 56.0311 90.0066 56.0311 89.0925C56.0311 88.3367 55.5653 87.9324 54.3524 87.6599L52.9374 87.3347C51.2147 86.9392 50.3622 86.0691 50.3622 84.7156ZM62.7392 79.5828H64.2158V82.1667H68.083V83.4412H64.2334V88.8201C64.2334 89.8572 64.9629 90.4197 66.3076 90.4197C66.8437 90.4197 67.8017 90.3933 68.0566 90.3669V91.6326C67.8193 91.6765 66.6591 91.7205 66.2021 91.7205C63.8379 91.7205 62.7392 90.824 62.7392 88.8376V83.4412H60.1992V82.1667H62.7392V79.5828ZM73.9298 91.8435C72.1104 91.8435 70.8975 90.7009 70.8975 88.9695C70.8975 87.282 72.1104 86.28 74.2813 86.1658L76.9005 86.0339V85.1726C76.9005 83.9773 76.171 83.3181 74.8438 83.3181C73.7452 83.3181 72.9718 83.7839 72.7257 84.6013H71.2579C71.4337 83.072 72.9102 82.0261 74.8614 82.0261C77.1026 82.0261 78.3858 83.1687 78.3858 85.155V91.6853H76.962V90.2527H76.8126C76.3556 91.2722 75.3184 91.8435 73.9298 91.8435ZM74.3604 90.5339C75.8018 90.5339 76.9005 89.5759 76.9005 88.3015V87.1765L74.4483 87.2908C73.1124 87.3523 72.4093 87.9236 72.4093 88.9167C72.4093 89.9187 73.1563 90.5339 74.3604 90.5339ZM83.802 79.5828H85.2785V82.1667H89.1457V83.4412H85.2961V88.8201C85.2961 89.8572 86.0256 90.4197 87.3703 90.4197C87.9065 90.4197 88.8645 90.3933 89.1193 90.3669V91.6326C88.882 91.6765 87.7219 91.7205 87.2649 91.7205C84.9006 91.7205 83.802 90.824 83.802 88.8376V83.4412H81.2619V82.1667H83.802V79.5828ZM99.8616 82.1404V91.6765H98.429V89.9978H98.306C97.7962 91.1843 96.7064 91.8523 95.2562 91.8523C93.182 91.8523 92.057 90.613 92.057 88.3279V82.1404H93.5511V87.95C93.5511 89.6726 94.2542 90.4812 95.7396 90.4812C97.3128 90.4812 98.3675 89.3826 98.3675 87.7566V82.1404H99.8616ZM103.019 84.7156C103.019 83.0632 104.425 81.9558 106.526 81.9558C108.512 81.9558 109.857 82.949 110.033 84.5398H108.591C108.415 83.7048 107.616 83.1951 106.499 83.1951C105.287 83.1951 104.504 83.7576 104.504 84.6277C104.504 85.3572 104.997 85.7703 106.192 86.0339L107.537 86.3416C109.391 86.7634 110.235 87.572 110.235 88.9519C110.235 90.7097 108.767 91.8523 106.508 91.8523C104.346 91.8523 102.914 90.8416 102.747 89.2068H104.267C104.487 90.0857 105.331 90.5955 106.561 90.5955C107.862 90.5955 108.688 90.0066 108.688 89.0925C108.688 88.3367 108.222 87.9324 107.009 87.6599L105.594 87.3347C103.872 86.9392 103.019 86.0691 103.019 84.7156ZM117.022 84.9792C116.152 84.9792 115.431 84.241 115.431 83.3533C115.431 82.4656 116.152 81.7273 117.022 81.7273C117.892 81.7273 118.613 82.4656 118.613 83.3533C118.613 84.241 117.892 84.9792 117.022 84.9792ZM117.022 91.7292C116.152 91.7292 115.431 90.9998 115.431 90.1033C115.431 89.2156 116.152 88.4861 117.022 88.4861C117.892 88.4861 118.613 89.2156 118.613 90.1033C118.613 90.9998 117.892 91.7292 117.022 91.7292ZM52.867 118.844C51.0477 118.844 49.8348 117.701 49.8348 115.969C49.8348 114.282 51.0477 113.28 53.2186 113.166L55.8377 113.034V112.173C55.8377 110.977 55.1083 110.318 53.7811 110.318C52.6825 110.318 51.909 110.784 51.6629 111.601H50.1952C50.371 110.072 51.8475 109.026 53.7987 109.026C56.0399 109.026 57.3231 110.169 57.3231 112.155V118.685H55.8993V117.253H55.7499C55.2928 118.272 54.2557 118.844 52.867 118.844ZM53.2977 117.534C54.7391 117.534 55.8377 116.576 55.8377 115.302V114.177L53.3856 114.291C52.0497 114.352 51.3465 114.924 51.3465 115.917C51.3465 116.919 52.0936 117.534 53.2977 117.534ZM68.9619 111.654V118.677H67.6172V112.094C67.6172 110.933 67.1953 110.327 66.3955 110.327C65.5605 110.327 65.0508 111.056 65.0508 112.243V118.677H63.7148V112.085C63.7148 110.933 63.2929 110.327 62.4843 110.327C61.6406 110.327 61.1133 111.056 61.1133 112.243V118.677H59.7685V109.14H61.1045V110.485H61.2627C61.5 109.527 62.1855 108.965 63.082 108.965C63.9785 108.965 64.6113 109.518 64.8134 110.459H64.9716C65.2177 109.545 65.9824 108.965 66.9404 108.965C68.2675 108.965 68.9619 109.887 68.9619 111.654ZM74.8966 118.852C72.3741 118.852 70.7657 117.209 70.7657 114.634V113.192C70.7657 110.617 72.3741 108.973 74.8966 108.973C77.419 108.973 79.0274 110.617 79.0274 113.192V114.634C79.0274 117.209 77.419 118.852 74.8966 118.852ZM74.8966 110.292C73.2618 110.292 72.2423 111.452 72.2423 113.324V114.493C72.2423 116.374 73.2618 117.525 74.8966 117.525C76.5313 117.525 77.5509 116.374 77.5509 114.493V113.324C77.5509 111.452 76.5313 110.292 74.8966 110.292ZM89.3303 109.14V118.677H87.8977V116.998H87.7746C87.2649 118.184 86.175 118.852 84.7248 118.852C82.6506 118.852 81.5256 117.613 81.5256 115.328V109.14H83.0197V114.95C83.0197 116.673 83.7229 117.481 85.2082 117.481C86.7815 117.481 87.8361 116.383 87.8361 114.757V109.14H89.3303ZM92.057 118.677V109.14H93.4896V110.819H93.6126C94.1224 109.633 95.2122 108.965 96.6624 108.965C98.7366 108.965 99.8616 110.204 99.8616 112.489V118.677H98.3675V112.867C98.3675 111.144 97.6644 110.336 96.179 110.336C94.6058 110.336 93.5511 111.434 93.5511 113.06V118.677H92.057ZM104.865 106.583H106.341V109.167H110.208V110.441H106.359V115.82C106.359 116.857 107.088 117.42 108.433 117.42C108.969 117.42 109.927 117.393 110.182 117.367V118.633C109.945 118.677 108.785 118.72 108.328 118.72C105.963 118.72 104.865 117.824 104.865 115.838V110.441H102.325V109.167H104.865V106.583ZM117.022 111.979C116.152 111.979 115.431 111.241 115.431 110.353C115.431 109.466 116.152 108.727 117.022 108.727C117.892 108.727 118.613 109.466 118.613 110.353C118.613 111.241 117.892 111.979 117.022 111.979ZM117.022 118.729C116.152 118.729 115.431 118 115.431 117.103C115.431 116.216 116.152 115.486 117.022 115.486C117.892 115.486 118.613 116.216 118.613 117.103C118.613 118 117.892 118.729 117.022 118.729ZM52.867 146.844C51.0477 146.844 49.8348 145.701 49.8348 143.969C49.8348 142.282 51.0477 141.28 53.2186 141.166L55.8377 141.034V140.173C55.8377 138.977 55.1083 138.318 53.7811 138.318C52.6825 138.318 51.909 138.784 51.6629 139.601H50.1952C50.371 138.072 51.8475 137.026 53.7987 137.026C56.0399 137.026 57.3231 138.169 57.3231 140.155V146.685H55.8993V145.253H55.7499C55.2928 146.272 54.2557 146.844 52.867 146.844ZM53.2977 145.534C54.7391 145.534 55.8377 144.576 55.8377 143.302V142.177L53.3856 142.291C52.0497 142.352 51.3465 142.924 51.3465 143.917C51.3465 144.919 52.0936 145.534 53.2977 145.534ZM60.8935 139.716C60.8935 138.063 62.2998 136.956 64.4004 136.956C66.3867 136.956 67.7314 137.949 67.9072 139.54H66.4658C66.29 138.705 65.4902 138.195 64.374 138.195C63.1611 138.195 62.3789 138.758 62.3789 139.628C62.3789 140.357 62.8711 140.77 64.0664 141.034L65.4111 141.342C67.2656 141.763 68.1093 142.572 68.1093 143.952C68.1093 145.71 66.6416 146.852 64.3828 146.852C62.2207 146.852 60.7881 145.842 60.6211 144.207H62.1416C62.3613 145.086 63.205 145.595 64.4355 145.595C65.7363 145.595 66.5625 145.007 66.5625 144.093C66.5625 143.337 66.0966 142.932 64.8838 142.66L63.4687 142.335C61.7461 141.939 60.8935 141.069 60.8935 139.716ZM71.4249 139.716C71.4249 138.063 72.8311 136.956 74.9317 136.956C76.9181 136.956 78.2628 137.949 78.4386 139.54H76.9972C76.8214 138.705 76.0216 138.195 74.9054 138.195C73.6925 138.195 72.9102 138.758 72.9102 139.628C72.9102 140.357 73.4024 140.77 74.5977 141.034L75.9425 141.342C77.797 141.763 78.6407 142.572 78.6407 143.952C78.6407 145.71 77.1729 146.852 74.9142 146.852C72.752 146.852 71.3194 145.842 71.1524 144.207H72.6729C72.8927 145.086 73.7364 145.595 74.9669 145.595C76.2677 145.595 77.0938 145.007 77.0938 144.093C77.0938 143.337 76.628 142.932 75.4151 142.66L74.0001 142.335C72.2774 141.939 71.4249 141.069 71.4249 139.716ZM88.0031 144.216H89.4533C89.1633 145.789 87.6516 146.852 85.6477 146.852C83.0285 146.852 81.508 145.279 81.508 142.563V141.131C81.508 138.617 83.1164 136.965 85.5422 136.965C88.0207 136.965 89.4797 138.608 89.4797 141.368V142.3H82.9846V142.686C82.9846 144.435 84.0217 145.56 85.6477 145.56C86.8518 145.56 87.7395 145.051 88.0031 144.216ZM85.5334 138.248C83.9426 138.248 82.9846 139.338 82.9846 141.166H88.0031C88.0031 139.346 87.0715 138.248 85.5334 138.248ZM94.3333 134.583H95.8099V137.167H99.6771V138.441H95.8275V143.82C95.8275 144.857 96.557 145.42 97.9017 145.42C98.4378 145.42 99.3958 145.393 99.6507 145.367V146.633C99.4134 146.677 98.2532 146.72 97.7962 146.72C95.432 146.72 94.3333 145.824 94.3333 143.838V138.441H91.7933V137.167H94.3333V134.583ZM106.491 139.979C105.621 139.979 104.9 139.241 104.9 138.353C104.9 137.466 105.621 136.727 106.491 136.727C107.361 136.727 108.081 137.466 108.081 138.353C108.081 139.241 107.361 139.979 106.491 139.979ZM106.491 146.729C105.621 146.729 104.9 146 104.9 145.103C104.9 144.216 105.621 143.486 106.491 143.486C107.361 143.486 108.081 144.216 108.081 145.103C108.081 146 107.361 146.729 106.491 146.729Z" fill="#61BAEF"/>
<path d="M94.0433 30.3308C94.0433 27.3513 94.9398 24.7585 96.6888 22.7722H98.1741C96.3548 25.3298 95.5902 27.571 95.5902 30.3308C95.5902 33.0906 96.3548 35.3318 98.1741 37.8894H96.6888C94.9398 35.9031 94.0433 33.3191 94.0433 30.3308ZM150.444 50.9939H151.771L150.699 56.7156H148.88L150.444 50.9939ZM147.052 50.9939H148.379L147.307 56.7156H145.487L147.052 50.9939ZM159.314 51.8025C158.611 51.8025 158.075 51.2751 158.075 50.572C158.075 49.8777 158.611 49.3503 159.314 49.3503C160.018 49.3503 160.554 49.8777 160.554 50.572C160.554 51.2751 160.018 51.8025 159.314 51.8025ZM163.314 63.6765H155.412V62.4373H158.682V55.3796H155.439V54.1404H160.158V62.4373H163.314V63.6765ZM168.053 51.5828H169.529V54.1667H173.397V55.4412H169.547V60.8201C169.547 61.8572 170.277 62.4197 171.621 62.4197C172.157 62.4197 173.115 62.3933 173.37 62.3669V63.6326C173.133 63.6765 171.973 63.7205 171.516 63.7205C169.152 63.7205 168.053 62.824 168.053 60.8376V55.4412H165.513V54.1667H168.053V51.5828ZM182.785 61.2156H184.236C183.946 62.7888 182.434 63.8523 180.43 63.8523C177.811 63.8523 176.29 62.2791 176.29 59.5632V58.1306C176.29 55.6169 177.899 53.9646 180.324 53.9646C182.803 53.9646 184.262 55.6082 184.262 58.3679V59.2996H177.767V59.6863C177.767 61.4353 178.804 62.5603 180.43 62.5603C181.634 62.5603 182.522 62.0505 182.785 61.2156ZM180.316 55.2478C178.725 55.2478 177.767 56.3376 177.767 58.1658H182.785C182.785 56.3464 181.854 55.2478 180.316 55.2478ZM195.338 56.6541V63.6765H193.994V57.0935C193.994 55.9333 193.572 55.3269 192.772 55.3269C191.937 55.3269 191.427 56.0564 191.427 57.2429V63.6765H190.091V57.0847C190.091 55.9333 189.669 55.3269 188.861 55.3269C188.017 55.3269 187.49 56.0564 187.49 57.2429V63.6765H186.145V54.1404H187.481V55.4851H187.639C187.876 54.5271 188.562 53.9646 189.458 53.9646C190.355 53.9646 190.988 54.5183 191.19 55.4587H191.348C191.594 54.5447 192.359 53.9646 193.317 53.9646C194.644 53.9646 195.338 54.8875 195.338 56.6541ZM201.273 56.9792C200.403 56.9792 199.682 56.241 199.682 55.3533C199.682 54.4656 200.403 53.7273 201.273 53.7273C202.143 53.7273 202.864 54.4656 202.864 55.3533C202.864 56.241 202.143 56.9792 201.273 56.9792ZM201.273 63.7292C200.403 63.7292 199.682 62.9998 199.682 62.1033C199.682 61.2156 200.403 60.4861 201.273 60.4861C202.143 60.4861 202.864 61.2156 202.864 62.1033C202.864 62.9998 202.143 63.7292 201.273 63.7292ZM216.401 56.6541V63.6765H215.056V57.0935C215.056 55.9333 214.634 55.3269 213.835 55.3269C213 55.3269 212.49 56.0564 212.49 57.2429V63.6765H211.154V57.0847C211.154 55.9333 210.732 55.3269 209.923 55.3269C209.08 55.3269 208.552 56.0564 208.552 57.2429V63.6765H207.208V54.1404H208.544V55.4851H208.702C208.939 54.5271 209.625 53.9646 210.521 53.9646C211.418 53.9646 212.05 54.5183 212.253 55.4587H212.411C212.657 54.5447 213.421 53.9646 214.38 53.9646C215.707 53.9646 216.401 54.8875 216.401 56.6541ZM222.336 63.8523C219.813 63.8523 218.205 62.2087 218.205 59.6335V58.1921C218.205 55.6169 219.813 53.9734 222.336 53.9734C224.858 53.9734 226.467 55.6169 226.467 58.1921V59.6335C226.467 62.2087 224.858 63.8523 222.336 63.8523ZM222.336 55.2917C220.701 55.2917 219.681 56.4519 219.681 58.324V59.4929C219.681 61.3738 220.701 62.5251 222.336 62.5251C223.97 62.5251 224.99 61.3738 224.99 59.4929V58.324C224.99 56.4519 223.97 55.2917 222.336 55.2917ZM228.965 63.6765V54.1404H230.397V55.8191H230.52C231.03 54.6326 232.12 53.9646 233.57 53.9646C235.644 53.9646 236.769 55.2039 236.769 57.489V63.6765H235.275V57.8669C235.275 56.1443 234.572 55.3357 233.087 55.3357C231.514 55.3357 230.459 56.4343 230.459 58.0603V63.6765H228.965ZM241.772 51.5828H243.249V54.1667H247.116V55.4412H243.267V60.8201C243.267 61.8572 243.996 62.4197 245.341 62.4197C245.877 62.4197 246.835 62.3933 247.09 62.3669V63.6326C246.853 63.6765 245.692 63.7205 245.235 63.7205C242.871 63.7205 241.772 62.824 241.772 60.8376V55.4412H239.232V54.1667H241.772V51.5828ZM250.019 63.6765V50.3962H251.46V55.8279H251.583C252.084 54.6414 253.183 53.9734 254.642 53.9734C256.716 53.9734 257.841 55.2214 257.841 57.4978V63.6765H256.347V57.8757C256.347 56.1619 255.644 55.3445 254.15 55.3445C252.576 55.3445 251.513 56.4431 251.513 58.0691V63.6765H250.019ZM268.627 63.6765H260.726V62.4373H263.987V51.6355H260.752V50.3962H265.481V62.4373H268.627V63.6765ZM272.321 67.0691C272.101 67.0691 271.811 67.0603 271.679 67.0427V65.7332C271.793 65.7595 272.066 65.7683 272.206 65.7683C273.103 65.7683 273.595 65.364 273.991 64.2566L274.158 63.738L270.651 54.1404H272.277L274.949 62.1208H275.063L277.726 54.1404H279.317L275.722 64.0281C274.887 66.3748 274.087 67.0691 272.321 67.0691ZM290.085 66.4187H280.962V65.1267H290.085V66.4187ZM296.653 53.9822C298.859 53.9822 300.3 55.573 300.3 58.0251V59.8005C300.3 62.2439 298.859 63.8347 296.653 63.8347C295.273 63.8347 294.262 63.2458 293.849 62.2H293.682V66.8933H292.162V54.1404H293.638V55.5994H293.796C294.297 54.5447 295.291 53.9822 296.653 53.9822ZM296.222 55.3533C294.649 55.3533 293.647 56.4783 293.647 58.2361V59.6072C293.647 61.3738 294.649 62.4988 296.222 62.4988C297.795 62.4988 298.797 61.365 298.797 59.6072V58.2361C298.797 56.4783 297.795 55.3533 296.222 55.3533ZM306.209 59.405V62.4812H309.162V63.6765H302.825V62.4812H304.75V55.3357H302.632V54.1404H306.191V56.575H306.384C306.736 54.8083 307.923 53.8943 309.759 53.8943C310.304 53.8943 310.823 53.9734 311.139 54.1052V55.7839C310.7 55.6257 310.085 55.5203 309.566 55.5203C307.457 55.5203 306.209 56.9792 306.209 59.405ZM319.693 61.2156H321.143C320.853 62.7888 319.342 63.8523 317.338 63.8523C314.719 63.8523 313.198 62.2791 313.198 59.5632V58.1306C313.198 55.6169 314.806 53.9646 317.232 53.9646C319.711 53.9646 321.17 55.6082 321.17 58.3679V59.2996H314.675V59.6863C314.675 61.4353 315.712 62.5603 317.338 62.5603C318.542 62.5603 319.429 62.0505 319.693 61.2156ZM317.223 55.2478C315.633 55.2478 314.675 56.3376 314.675 58.1658H319.693C319.693 56.3464 318.762 55.2478 317.223 55.2478ZM332.246 56.6541V63.6765H330.901V57.0935C330.901 55.9333 330.479 55.3269 329.68 55.3269C328.845 55.3269 328.335 56.0564 328.335 57.2429V63.6765H326.999V57.0847C326.999 55.9333 326.577 55.3269 325.768 55.3269C324.925 55.3269 324.397 56.0564 324.397 57.2429V63.6765H323.053V54.1404H324.389V55.4851H324.547C324.784 54.5271 325.47 53.9646 326.366 53.9646C327.263 53.9646 327.895 54.5183 328.098 55.4587H328.256C328.502 54.5447 329.267 53.9646 330.225 53.9646C331.552 53.9646 332.246 54.8875 332.246 56.6541ZM338.348 51.8025C337.645 51.8025 337.108 51.2751 337.108 50.572C337.108 49.8777 337.645 49.3503 338.348 49.3503C339.051 49.3503 339.587 49.8777 339.587 50.572C339.587 51.2751 339.051 51.8025 338.348 51.8025ZM342.347 63.6765H334.445V62.4373H337.715V55.3796H334.472V54.1404H339.191V62.4373H342.347V63.6765ZM352.614 54.1404V63.6765H351.182V61.9978H351.059C350.549 63.1843 349.459 63.8523 348.009 63.8523C345.935 63.8523 344.81 62.613 344.81 60.3279V54.1404H346.304V59.95C346.304 61.6726 347.007 62.4812 348.492 62.4812C350.066 62.4812 351.12 61.3826 351.12 59.7566V54.1404H352.614ZM363.84 56.6541V63.6765H362.495V57.0935C362.495 55.9333 362.073 55.3269 361.274 55.3269C360.439 55.3269 359.929 56.0564 359.929 57.2429V63.6765H358.593V57.0847C358.593 55.9333 358.171 55.3269 357.363 55.3269C356.519 55.3269 355.991 56.0564 355.991 57.2429V63.6765H354.647V54.1404H355.983V55.4851H356.141C356.378 54.5271 357.064 53.9646 357.96 53.9646C358.857 53.9646 359.49 54.5183 359.692 55.4587H359.85C360.096 54.5447 360.861 53.9646 361.819 53.9646C363.146 53.9646 363.84 54.8875 363.84 56.6541ZM367.876 56.5486H366.549L367.621 50.8269H369.432L367.876 56.5486ZM371.269 56.5486H369.942L371.014 50.8269H372.825L371.269 56.5486ZM379.506 66.5945H378.091L379.181 60.8816H381.159L379.506 66.5945ZM150.444 78.9939H151.771L150.699 84.7156H148.88L150.444 78.9939ZM147.052 78.9939H148.379L147.307 84.7156H145.487L147.052 78.9939ZM159.745 81.9822C161.951 81.9822 163.393 83.573 163.393 86.0251V87.8005C163.393 90.2439 161.951 91.8347 159.745 91.8347C158.365 91.8347 157.355 91.2458 156.941 90.2H156.774V94.8933H155.254V82.1404H156.73V83.5994H156.889C157.39 82.5447 158.383 81.9822 159.745 81.9822ZM159.314 83.3533C157.741 83.3533 156.739 84.4783 156.739 86.2361V87.6072C156.739 89.3738 157.741 90.4988 159.314 90.4988C160.888 90.4988 161.89 89.365 161.89 87.6072V86.2361C161.89 84.4783 160.888 83.3533 159.314 83.3533ZM168.712 91.8435C166.893 91.8435 165.68 90.7009 165.68 88.9695C165.68 87.282 166.893 86.28 169.064 86.1658L171.683 86.0339V85.1726C171.683 83.9773 170.953 83.3181 169.626 83.3181C168.527 83.3181 167.754 83.7839 167.508 84.6013H166.04C166.216 83.072 167.693 82.0261 169.644 82.0261C171.885 82.0261 173.168 83.1687 173.168 85.155V91.6853H171.744V90.2527H171.595C171.138 91.2722 170.101 91.8435 168.712 91.8435ZM169.143 90.5339C170.584 90.5339 171.683 89.5759 171.683 88.3015V87.1765L169.231 87.2908C167.895 87.3523 167.192 87.9236 167.192 88.9167C167.192 89.9187 167.939 90.5339 169.143 90.5339ZM180.377 79.8025C179.674 79.8025 179.138 79.2751 179.138 78.572C179.138 77.8777 179.674 77.3503 180.377 77.3503C181.08 77.3503 181.616 77.8777 181.616 78.572C181.616 79.2751 181.08 79.8025 180.377 79.8025ZM184.376 91.6765H176.475V90.4373H179.744V83.3796H176.501V82.1404H181.221V90.4373H184.376V91.6765ZM190.144 91.8347C187.938 91.8347 186.496 90.2439 186.496 87.7917V86.0164C186.496 83.573 187.938 81.9822 190.144 81.9822C191.524 81.9822 192.543 82.571 192.956 83.6169H193.115V78.3962H194.635V91.6765H193.167V90.2175H193C192.508 91.2722 191.506 91.8347 190.144 91.8347ZM190.583 90.4724C192.148 90.4724 193.159 89.3474 193.159 87.5808V86.2097C193.159 84.4519 192.148 83.3269 190.583 83.3269C189.01 83.3269 187.999 84.4519 187.999 86.2097V87.5808C187.999 89.3386 189.01 90.4724 190.583 90.4724ZM199.375 84.5486H198.047L199.12 78.8269H200.93L199.375 84.5486ZM202.767 84.5486H201.44L202.512 78.8269H204.323L202.767 84.5486ZM211.005 94.5945H209.589L210.679 88.8816H212.657L211.005 94.5945ZM150.444 105.994H151.771L150.699 111.716H148.88L150.444 105.994ZM147.052 105.994H148.379L147.307 111.716H145.487L147.052 105.994ZM157.601 112.797V111.496H158.98C160.404 111.496 161.397 110.564 161.397 109.237C161.397 107.945 160.448 107.093 159.016 107.093C157.592 107.093 156.643 107.927 156.52 109.29H155.034C155.184 107.093 156.73 105.73 159.077 105.73C161.345 105.73 162.962 107.093 162.962 109.017C162.962 110.547 162.162 111.636 160.8 111.97V112.111C162.487 112.331 163.489 113.517 163.489 115.249C163.489 117.402 161.679 118.94 159.147 118.94C156.643 118.94 154.902 117.499 154.788 115.31H156.256C156.397 116.664 157.522 117.543 159.104 117.543C160.844 117.543 161.925 116.646 161.925 115.214C161.925 113.737 160.809 112.797 159.051 112.797H157.601ZM169.679 118.729C168.809 118.729 168.088 118 168.088 117.103C168.088 116.216 168.809 115.486 169.679 115.486C170.549 115.486 171.27 116.216 171.27 117.103C171.27 118 170.549 118.729 169.679 118.729ZM175.877 110.063C175.877 107.55 177.688 105.73 180.193 105.73C182.698 105.73 184.499 107.532 184.499 110.063C184.499 111.505 183.99 112.849 182.741 114.66C182.627 114.853 179.999 118.545 179.903 118.677H178.127L181.581 113.922C181.871 113.526 181.933 113.412 182.012 113.271L181.88 113.201C181.502 113.711 180.606 114.089 179.806 114.089C177.538 114.089 175.877 112.384 175.877 110.063ZM180.184 107.11C178.593 107.11 177.38 108.358 177.38 109.984C177.38 111.619 178.593 112.867 180.184 112.867C181.783 112.867 182.996 111.619 182.996 109.984C182.996 108.358 181.783 107.11 180.184 107.11ZM186.409 110.063C186.409 107.55 188.219 105.73 190.724 105.73C193.229 105.73 195.031 107.532 195.031 110.063C195.031 111.505 194.521 112.849 193.273 114.66C193.159 114.853 190.531 118.545 190.434 118.677H188.659L192.113 113.922C192.403 113.526 192.464 113.412 192.543 113.271L192.411 113.201C192.034 113.711 191.137 114.089 190.337 114.089C188.07 114.089 186.409 112.384 186.409 110.063ZM190.715 107.11C189.124 107.11 187.911 108.358 187.911 109.984C187.911 111.619 189.124 112.867 190.715 112.867C192.315 112.867 193.528 111.619 193.528 109.984C193.528 108.358 192.315 107.11 190.715 107.11ZM199.375 111.549H198.047L199.12 105.827H200.93L199.375 111.549ZM202.767 111.549H201.44L202.512 105.827H204.323L202.767 111.549ZM211.005 121.594H209.589L210.679 115.882H212.657L211.005 121.594ZM150.444 133.994H151.771L150.699 139.716H148.88L150.444 133.994ZM147.052 133.994H148.379L147.307 139.716H145.487L147.052 133.994ZM159.147 145.472C160.993 145.472 162.065 144.26 162.065 142.177V133.994H163.612V142.273C163.612 145.191 161.942 146.94 159.147 146.94C156.353 146.94 154.683 145.191 154.683 142.273V133.994H156.23V142.177C156.23 144.26 157.302 145.472 159.147 145.472ZM165.337 143.302H166.849C167.007 144.69 168.123 145.534 169.811 145.534C171.498 145.534 172.606 144.655 172.606 143.293C172.606 142.194 171.867 141.535 170.153 141.113L169.064 140.841C166.708 140.243 165.645 139.127 165.645 137.29C165.645 135.128 167.271 133.73 169.802 133.73C172.193 133.73 173.836 135.11 173.942 137.219H172.43C172.272 135.91 171.305 135.136 169.811 135.136C168.185 135.136 167.209 135.91 167.209 137.202C167.209 138.301 167.912 138.933 169.565 139.346L170.672 139.628C173.133 140.234 174.17 141.306 174.17 143.214C174.17 145.49 172.456 146.94 169.802 146.94C167.183 146.94 165.469 145.552 165.337 143.302ZM176.053 133.994H179.604C183.199 133.994 185.009 136.112 185.009 140.313C185.009 144.55 183.199 146.677 179.604 146.677H176.053V133.994ZM177.609 135.418V145.253H179.463C182.153 145.253 183.427 143.679 183.427 140.322C183.427 137 182.144 135.418 179.463 135.418H177.609ZM191.515 146.677H189.968V135.418H186.136V133.994H195.347V135.418H191.515V146.677ZM199.375 139.549H198.047L199.12 133.827H200.93L199.375 139.549ZM202.767 139.549H201.44L202.512 133.827H204.323L202.767 139.549ZM24.1558 167.331C24.1558 170.319 23.2593 172.903 21.5103 174.889H20.0249C21.8442 172.332 22.6089 170.091 22.6089 167.331C22.6089 164.571 21.8442 162.33 20.0249 159.772H21.5103C23.2593 161.759 24.1558 164.351 24.1558 167.331Z" fill="white"/>
</svg>
