<svg width="395" height="89" viewBox="0 0 395 89" fill="none" xmlns="http://www.w3.org/2000/svg">
<rect width="394.279" height="88.3529" rx="20" fill="#0D0D12"/>
<path d="M21.2729 36.8435C19.4536 36.8435 18.2407 35.7009 18.2407 33.9695C18.2407 32.282 19.4536 31.28 21.6245 31.1658L24.2437 31.0339V30.1726C24.2437 28.9773 23.5142 28.3181 22.187 28.3181C21.0884 28.3181 20.3149 28.7839 20.0688 29.6013H18.6011C18.7769 28.072 20.2534 27.0261 22.2046 27.0261C24.4458 27.0261 25.729 28.1687 25.729 30.155V36.6853H24.3052V35.2527H24.1558C23.6987 36.2722 22.6616 36.8435 21.2729 36.8435ZM21.7036 35.5339C23.145 35.5339 24.2437 34.5759 24.2437 33.3015V32.1765L21.7915 32.2908C20.4556 32.3523 19.7524 32.9236 19.7524 33.9167C19.7524 34.9187 20.4995 35.5339 21.7036 35.5339ZM29.2994 29.7156C29.2994 28.0632 30.7057 26.9558 32.8063 26.9558C34.7926 26.9558 36.1373 27.949 36.3131 29.5398H34.8717C34.6959 28.7048 33.8961 28.1951 32.7799 28.1951C31.567 28.1951 30.7848 28.7576 30.7848 29.6277C30.7848 30.3572 31.277 30.7703 32.4723 31.0339L33.817 31.3416C35.6715 31.7634 36.5153 32.572 36.5153 33.9519C36.5153 35.7097 35.0475 36.8523 32.7887 36.8523C30.6266 36.8523 29.194 35.8416 29.027 34.2068H30.5475C30.7672 35.0857 31.611 35.5955 32.8414 35.5955C34.1422 35.5955 34.9684 35.0066 34.9684 34.0925C34.9684 33.3367 34.5026 32.9324 33.2897 32.6599L31.8746 32.3347C30.152 31.9392 29.2994 31.0691 29.2994 29.7156ZM39.8308 29.7156C39.8308 28.0632 41.237 26.9558 43.3376 26.9558C45.324 26.9558 46.6687 27.949 46.8445 29.5398H45.4031C45.2273 28.7048 44.4275 28.1951 43.3113 28.1951C42.0984 28.1951 41.3161 28.7576 41.3161 29.6277C41.3161 30.3572 41.8083 30.7703 43.0036 31.0339L44.3484 31.3416C46.2029 31.7634 47.0466 32.572 47.0466 33.9519C47.0466 35.7097 45.5788 36.8523 43.3201 36.8523C41.1579 36.8523 39.7253 35.8416 39.5583 34.2068H41.0788C41.2986 35.0857 42.1423 35.5955 43.3728 35.5955C44.6736 35.5955 45.4997 35.0066 45.4997 34.0925C45.4997 33.3367 45.0339 32.9324 43.821 32.6599L42.406 32.3347C40.6833 31.9392 39.8308 31.0691 39.8308 29.7156ZM56.409 34.2156H57.8592C57.5692 35.7888 56.0575 36.8523 54.0536 36.8523C51.4344 36.8523 49.9139 35.2791 49.9139 32.5632V31.1306C49.9139 28.6169 51.5223 26.9646 53.9481 26.9646C56.4266 26.9646 57.8856 28.6082 57.8856 31.3679V32.2996H51.3905V32.6863C51.3905 34.4353 52.4276 35.5603 54.0536 35.5603C55.2577 35.5603 56.1454 35.0505 56.409 34.2156ZM53.9393 28.2478C52.3485 28.2478 51.3905 29.3376 51.3905 31.1658H56.409C56.409 29.3464 55.4774 28.2478 53.9393 28.2478ZM62.7392 24.5828H64.2158V27.1667H68.083V28.4412H64.2334V33.8201C64.2334 34.8572 64.9629 35.4197 66.3076 35.4197C66.8437 35.4197 67.8017 35.3933 68.0566 35.3669V36.6326C67.8193 36.6765 66.6591 36.7205 66.2021 36.7205C63.8379 36.7205 62.7392 35.824 62.7392 33.8376V28.4412H60.1992V27.1667H62.7392V24.5828ZM126.587 36.8435C124.767 36.8435 123.554 35.7009 123.554 33.9695C123.554 32.282 124.767 31.28 126.938 31.1658L129.557 31.0339V30.1726C129.557 28.9773 128.828 28.3181 127.501 28.3181C126.402 28.3181 125.629 28.7839 125.382 29.6013H123.915C124.091 28.072 125.567 27.0261 127.518 27.0261C129.759 27.0261 131.043 28.1687 131.043 30.155V36.6853H129.619V35.2527H129.469C129.012 36.2722 127.975 36.8435 126.587 36.8435ZM127.017 35.5339C128.459 35.5339 129.557 34.5759 129.557 33.3015V32.1765L127.105 32.2908C125.769 32.3523 125.066 32.9236 125.066 33.9167C125.066 34.9187 125.813 35.5339 127.017 35.5339ZM142.681 29.6541V36.6765H141.337V30.0935C141.337 28.9333 140.915 28.3269 140.115 28.3269C139.28 28.3269 138.77 29.0564 138.77 30.2429V36.6765H137.434V30.0847C137.434 28.9333 137.012 28.3269 136.204 28.3269C135.36 28.3269 134.833 29.0564 134.833 30.2429V36.6765H133.488V27.1404H134.824V28.4851H134.982C135.22 27.5271 135.905 26.9646 136.802 26.9646C137.698 26.9646 138.331 27.5183 138.533 28.4587H138.691C138.937 27.5447 139.702 26.9646 140.66 26.9646C141.987 26.9646 142.681 27.8875 142.681 29.6541ZM148.616 36.8523C146.094 36.8523 144.485 35.2087 144.485 32.6335V31.1921C144.485 28.6169 146.094 26.9734 148.616 26.9734C151.139 26.9734 152.747 28.6169 152.747 31.1921V32.6335C152.747 35.2087 151.139 36.8523 148.616 36.8523ZM148.616 28.2917C146.981 28.2917 145.962 29.4519 145.962 31.324V32.4929C145.962 34.3738 146.981 35.5251 148.616 35.5251C150.251 35.5251 151.27 34.3738 151.27 32.4929V31.324C151.27 29.4519 150.251 28.2917 148.616 28.2917ZM163.05 27.1404V36.6765H161.617V34.9978H161.494C160.984 36.1843 159.895 36.8523 158.444 36.8523C156.37 36.8523 155.245 35.613 155.245 33.3279V27.1404H156.739V32.95C156.739 34.6726 157.442 35.4812 158.928 35.4812C160.501 35.4812 161.556 34.3826 161.556 32.7566V27.1404H163.05ZM165.777 36.6765V27.1404H167.209V28.8191H167.332C167.842 27.6326 168.932 26.9646 170.382 26.9646C172.456 26.9646 173.581 28.2039 173.581 30.489V36.6765H172.087V30.8669C172.087 29.1443 171.384 28.3357 169.899 28.3357C168.325 28.3357 167.271 29.4343 167.271 31.0603V36.6765H165.777ZM178.584 24.5828H180.061V27.1667H183.928V28.4412H180.078V33.8201C180.078 34.8572 180.808 35.4197 182.153 35.4197C182.689 35.4197 183.647 35.3933 183.902 35.3669V36.6326C183.664 36.6765 182.504 36.7205 182.047 36.7205C179.683 36.7205 178.584 35.824 178.584 33.8376V28.4412H176.044V27.1667H178.584V24.5828ZM25.6675 64.8806H24.4722C22.3364 64.8806 21.6597 64.2039 21.6597 62.033V60.0642C21.6597 58.7107 20.8687 57.9197 18.812 58.1306V56.5398C20.8687 56.7507 21.6597 55.9685 21.6597 54.6062V52.6375C21.6597 50.4666 22.3364 49.7898 24.4722 49.7898H25.6675V50.9939H24.7095C23.3911 50.9939 23.1362 51.3015 23.1362 52.8308V55.1775C23.1362 56.408 22.2134 57.2253 20.4292 57.2693V57.4099C22.2134 57.4451 23.1362 58.2625 23.1362 59.4929V61.8396C23.1362 63.3689 23.3911 63.6765 24.7095 63.6765H25.6675V64.8806ZM31.857 56.6541H30.2486V50.9939H31.857V56.6541ZM35.2936 56.6541H33.6764V50.9939H35.2936V56.6541ZM42.3357 63.8435C40.5163 63.8435 39.3035 62.7009 39.3035 60.9695C39.3035 59.282 40.5163 58.28 42.6872 58.1658L45.3064 58.0339V57.1726C45.3064 55.9773 44.5769 55.3181 43.2497 55.3181C42.1511 55.3181 41.3777 55.7839 41.1316 56.6013H39.6638C39.8396 55.072 41.3161 54.0261 43.2673 54.0261C45.5085 54.0261 46.7917 55.1687 46.7917 57.155V63.6853H45.3679V62.2527H45.2185C44.7615 63.2722 43.7243 63.8435 42.3357 63.8435ZM42.7663 62.5339C44.2077 62.5339 45.3064 61.5759 45.3064 60.3015V59.1765L42.8542 59.2908C41.5183 59.3523 40.8152 59.9236 40.8152 60.9167C40.8152 61.9187 41.5622 62.5339 42.7663 62.5339ZM50.3622 56.7156C50.3622 55.0632 51.7684 53.9558 53.869 53.9558C55.8553 53.9558 57.2001 54.949 57.3758 56.5398H55.9344C55.7586 55.7048 54.9588 55.1951 53.8426 55.1951C52.6297 55.1951 51.8475 55.7576 51.8475 56.6277C51.8475 57.3572 52.3397 57.7703 53.535 58.0339L54.8797 58.3416C56.7342 58.7634 57.578 59.572 57.578 60.9519C57.578 62.7097 56.1102 63.8523 53.8514 63.8523C51.6893 63.8523 50.2567 62.8416 50.0897 61.2068H51.6102C51.8299 62.0857 52.6737 62.5955 53.9042 62.5955C55.2049 62.5955 56.0311 62.0066 56.0311 61.0925C56.0311 60.3367 55.5653 59.9324 54.3524 59.6599L52.9374 59.3347C51.2147 58.9392 50.3622 58.0691 50.3622 56.7156ZM60.8935 56.7156C60.8935 55.0632 62.2998 53.9558 64.4004 53.9558C66.3867 53.9558 67.7314 54.949 67.9072 56.5398H66.4658C66.29 55.7048 65.4902 55.1951 64.374 55.1951C63.1611 55.1951 62.3789 55.7576 62.3789 56.6277C62.3789 57.3572 62.8711 57.7703 64.0664 58.0339L65.4111 58.3416C67.2656 58.7634 68.1093 59.572 68.1093 60.9519C68.1093 62.7097 66.6416 63.8523 64.3828 63.8523C62.2207 63.8523 60.7881 62.8416 60.6211 61.2068H62.1416C62.3613 62.0857 63.205 62.5955 64.4355 62.5955C65.7363 62.5955 66.5625 62.0066 66.5625 61.0925C66.5625 60.3367 66.0966 59.9324 64.8838 59.6599L63.4687 59.3347C61.7461 58.9392 60.8935 58.0691 60.8935 56.7156ZM77.4718 61.2156H78.922C78.6319 62.7888 77.1202 63.8523 75.1163 63.8523C72.4972 63.8523 70.9767 62.2791 70.9767 59.5632V58.1306C70.9767 55.6169 72.585 53.9646 75.0108 53.9646C77.4893 53.9646 78.9483 55.6082 78.9483 58.3679V59.2996H72.4532V59.6863C72.4532 61.4353 73.4903 62.5603 75.1163 62.5603C76.3204 62.5603 77.2081 62.0505 77.4718 61.2156ZM75.002 55.2478C73.4112 55.2478 72.4532 56.3376 72.4532 58.1658H77.4718C77.4718 56.3464 76.5401 55.2478 75.002 55.2478ZM83.802 51.5828H85.2785V54.1667H89.1457V55.4412H85.2961V60.8201C85.2961 61.8572 86.0256 62.4197 87.3703 62.4197C87.9065 62.4197 88.8645 62.3933 89.1193 62.3669V63.6326C88.882 63.6765 87.7219 63.7205 87.2649 63.7205C84.9006 63.7205 83.802 62.824 83.802 60.8376V55.4412H81.2619V54.1667H83.802V51.5828ZM95.0452 56.6541H93.4368V50.9939H95.0452V56.6541ZM98.4818 56.6541H96.8646V50.9939H98.4818V56.6541ZM106.491 56.9792C105.621 56.9792 104.9 56.241 104.9 55.3533C104.9 54.4656 105.621 53.7273 106.491 53.7273C107.361 53.7273 108.081 54.4656 108.081 55.3533C108.081 56.241 107.361 56.9792 106.491 56.9792ZM106.491 63.7292C105.621 63.7292 104.9 62.9998 104.9 62.1033C104.9 61.2156 105.621 60.4861 106.491 60.4861C107.361 60.4861 108.081 61.2156 108.081 62.1033C108.081 62.9998 107.361 63.7292 106.491 63.7292ZM168.879 66.5945H167.464L168.554 60.8816H170.531L168.879 66.5945ZM189.828 56.6541H188.219V50.9939H189.828V56.6541ZM193.264 56.6541H191.647V50.9939H193.264V56.6541ZM200.306 63.8435C198.487 63.8435 197.274 62.7009 197.274 60.9695C197.274 59.282 198.487 58.28 200.658 58.1658L203.277 58.0339V57.1726C203.277 55.9773 202.547 55.3181 201.22 55.3181C200.122 55.3181 199.348 55.7839 199.102 56.6013H197.634C197.81 55.072 199.287 54.0261 201.238 54.0261C203.479 54.0261 204.762 55.1687 204.762 57.155V63.6853H203.338V62.2527H203.189C202.732 63.2722 201.695 63.8435 200.306 63.8435ZM200.737 62.5339C202.178 62.5339 203.277 61.5759 203.277 60.3015V59.1765L200.825 59.2908C199.489 59.3523 198.786 59.9236 198.786 60.9167C198.786 61.9187 199.533 62.5339 200.737 62.5339ZM216.401 56.6541V63.6765H215.056V57.0935C215.056 55.9333 214.634 55.3269 213.835 55.3269C213 55.3269 212.49 56.0564 212.49 57.2429V63.6765H211.154V57.0847C211.154 55.9333 210.732 55.3269 209.923 55.3269C209.08 55.3269 208.552 56.0564 208.552 57.2429V63.6765H207.208V54.1404H208.544V55.4851H208.702C208.939 54.5271 209.625 53.9646 210.521 53.9646C211.418 53.9646 212.05 54.5183 212.253 55.4587H212.411C212.657 54.5447 213.421 53.9646 214.38 53.9646C215.707 53.9646 216.401 54.8875 216.401 56.6541ZM222.336 63.8523C219.813 63.8523 218.205 62.2087 218.205 59.6335V58.1921C218.205 55.6169 219.813 53.9734 222.336 53.9734C224.858 53.9734 226.467 55.6169 226.467 58.1921V59.6335C226.467 62.2087 224.858 63.8523 222.336 63.8523ZM222.336 55.2917C220.701 55.2917 219.681 56.4519 219.681 58.324V59.4929C219.681 61.3738 220.701 62.5251 222.336 62.5251C223.97 62.5251 224.99 61.3738 224.99 59.4929V58.324C224.99 56.4519 223.97 55.2917 222.336 55.2917ZM236.769 54.1404V63.6765H235.337V61.9978H235.214C234.704 63.1843 233.614 63.8523 232.164 63.8523C230.09 63.8523 228.965 62.613 228.965 60.3279V54.1404H230.459V59.95C230.459 61.6726 231.162 62.4812 232.647 62.4812C234.221 62.4812 235.275 61.3826 235.275 59.7566V54.1404H236.769ZM239.496 63.6765V54.1404H240.929V55.8191H241.052C241.561 54.6326 242.651 53.9646 244.102 53.9646C246.176 53.9646 247.301 55.2039 247.301 57.489V63.6765H245.807V57.8669C245.807 56.1443 245.103 55.3357 243.618 55.3357C242.045 55.3357 240.99 56.4343 240.99 58.0603V63.6765H239.496ZM252.304 51.5828H253.78V54.1667H257.648V55.4412H253.798V60.8201C253.798 61.8572 254.527 62.4197 255.872 62.4197C256.408 62.4197 257.366 62.3933 257.621 62.3669V63.6326C257.384 63.6765 256.224 63.7205 255.767 63.7205C253.402 63.7205 252.304 62.824 252.304 60.8376V55.4412H249.764V54.1667H252.304V51.5828ZM263.547 56.6541H261.939V50.9939H263.547V56.6541ZM266.984 56.6541H265.366V50.9939H266.984V56.6541ZM274.993 56.9792C274.122 56.9792 273.402 56.241 273.402 55.3533C273.402 54.4656 274.122 53.7273 274.993 53.7273C275.863 53.7273 276.583 54.4656 276.583 55.3533C276.583 56.241 275.863 56.9792 274.993 56.9792ZM274.993 63.7292C274.122 63.7292 273.402 62.9998 273.402 62.1033C273.402 61.2156 274.122 60.4861 274.993 60.4861C275.863 60.4861 276.583 61.2156 276.583 62.1033C276.583 62.9998 275.863 63.7292 274.993 63.7292ZM355.816 64.8806V63.6765H356.774C358.092 63.6765 358.347 63.3689 358.347 61.8396V59.4929C358.347 58.2625 359.27 57.4451 361.054 57.4099V57.2693C359.27 57.2253 358.347 56.408 358.347 55.1775V52.8308C358.347 51.3015 358.092 50.9939 356.774 50.9939H355.816V49.7898H357.011C359.147 49.7898 359.823 50.4666 359.823 52.6375V54.6062C359.823 55.9685 360.615 56.7507 362.671 56.5398V58.1306C360.615 57.9197 359.823 58.7107 359.823 60.0642V62.033C359.823 64.2039 359.147 64.8806 357.011 64.8806H355.816Z" fill="white"/>
<path d="M79.546 29.7771H70.2472V28.3269H79.546V29.7771ZM79.546 33.7849H70.2472V32.3347H79.546V33.7849ZM195.391 29.7771H186.092V28.3269H195.391V29.7771ZM195.391 33.7849H186.092V32.3347H195.391V33.7849ZM116.108 56.6541H114.5V50.9939H116.108V56.6541ZM119.544 56.6541H117.927V50.9939H119.544V56.6541ZM128.327 63.6765H126.78V52.4177H122.948V50.9939H132.159V52.4177H128.327V63.6765ZM142.734 58.3591C142.734 61.866 140.968 63.9402 138.085 63.9402C135.202 63.9402 133.435 61.866 133.435 58.3591V56.3113C133.435 52.8044 135.202 50.7302 138.085 50.7302C140.968 50.7302 142.734 52.8044 142.734 56.3113V58.3591ZM138.085 62.4724C140.01 62.4724 141.17 60.9958 141.17 58.3503V56.3201C141.17 53.6746 140.01 52.198 138.085 52.198C136.16 52.198 135 53.6746 135 56.3201V58.3503C135 60.9958 136.16 62.4724 138.085 62.4724ZM145.795 63.6765H144.397V50.9939H145.883L151.314 60.864H151.437V50.9939H152.835V63.6765H151.367L145.918 53.78H145.795V63.6765ZM158.233 56.6541H156.625V50.9939H158.233V56.6541ZM161.67 56.6541H160.053V50.9939H161.67V56.6541ZM295.141 56.6541H293.533V50.9939H295.141V56.6541ZM298.578 56.6541H296.961V50.9939H298.578V56.6541ZM302.544 54.5623C302.544 52.3298 304.196 50.7302 306.508 50.7302C308.837 50.7302 310.436 52.1716 310.436 54.2898C310.436 55.6082 309.839 56.6628 307.817 58.8689L304.829 62.1208V62.2703H310.638V63.6765H302.614V62.6042L306.903 57.8318C308.511 56.03 308.898 55.3533 308.898 54.3513C308.898 52.989 307.94 52.0925 306.464 52.0925C305.005 52.0925 304.038 53.0681 304.038 54.5623V54.615H302.544V54.5623ZM317.118 63.7292C316.248 63.7292 315.527 62.9998 315.527 62.1033C315.527 61.2156 316.248 60.4861 317.118 60.4861C317.988 60.4861 318.709 61.2156 318.709 62.1033C318.709 62.9998 317.988 63.7292 317.118 63.7292ZM324.608 63.6765L330.365 52.4968V52.3826H323.483V50.9939H331.947V52.4265L326.261 63.6765H324.608ZM338.075 63.9314C335.711 63.9314 334.041 62.4724 333.909 60.2927H335.403C335.544 61.6199 336.678 62.5339 338.163 62.5339C339.798 62.5339 340.888 61.3826 340.888 59.6599C340.888 57.9197 339.789 56.7419 338.163 56.7419C337.029 56.7419 336.089 57.2605 335.588 58.157H334.12L334.762 50.9939H341.696V52.3914H335.983L335.632 56.531H335.772C336.397 55.7751 337.302 55.3796 338.418 55.3796C340.765 55.3796 342.399 57.1287 342.399 59.6248C342.399 62.1912 340.65 63.9314 338.075 63.9314ZM347.798 56.6541H346.19V50.9939H347.798V56.6541ZM351.235 56.6541H349.617V50.9939H351.235V56.6541Z" fill="#5DB0E2"/>
<path d="M86.2014 36.6765H84.6545V25.4177H80.8225V23.9939H90.0334V25.4177H86.2014V36.6765ZM100.609 31.3591C100.609 34.866 98.8421 36.9402 95.9593 36.9402C93.0765 36.9402 91.3099 34.866 91.3099 31.3591V29.3113C91.3099 25.8044 93.0765 23.7302 95.9593 23.7302C98.8421 23.7302 100.609 25.8044 100.609 29.3113V31.3591ZM95.9593 35.4724C97.8841 35.4724 99.0443 33.9958 99.0443 31.3503V29.3201C99.0443 26.6746 97.8841 25.198 95.9593 25.198C94.0345 25.198 92.8743 26.6746 92.8743 29.3201V31.3503C92.8743 33.9958 94.0345 35.4724 95.9593 35.4724ZM103.669 36.6765H102.272V23.9939H103.757L109.189 33.864H109.312V23.9939H110.709V36.6765H109.242L103.792 26.78H103.669V36.6765ZM197.23 27.5623C197.23 25.3298 198.882 23.7302 201.194 23.7302C203.523 23.7302 205.123 25.1716 205.123 27.2898C205.123 28.6082 204.525 29.6628 202.503 31.8689L199.515 35.1208V35.2703H205.325V36.6765H197.3V35.6042L201.589 30.8318C203.198 29.03 203.584 28.3533 203.584 27.3513C203.584 25.989 202.626 25.0925 201.15 25.0925C199.691 25.0925 198.724 26.0681 198.724 27.5623V27.615H197.23V27.5623ZM211.804 36.7292C210.934 36.7292 210.213 35.9998 210.213 35.1033C210.213 34.2156 210.934 33.4861 211.804 33.4861C212.674 33.4861 213.395 34.2156 213.395 35.1033C213.395 35.9998 212.674 36.7292 211.804 36.7292ZM219.295 36.6765L225.051 25.4968V25.3826H218.17V23.9939H226.634V25.4265L220.947 36.6765H219.295ZM232.762 36.9314C230.397 36.9314 228.727 35.4724 228.596 33.2927H230.09C230.23 34.6199 231.364 35.5339 232.849 35.5339C234.484 35.5339 235.574 34.3826 235.574 32.6599C235.574 30.9197 234.475 29.7419 232.849 29.7419C231.716 29.7419 230.775 30.2605 230.274 31.157H228.807L229.448 23.9939H236.383V25.3914H230.67L230.318 29.531H230.459C231.083 28.7751 231.988 28.3796 233.104 28.3796C235.451 28.3796 237.086 30.1287 237.086 32.6248C237.086 35.1912 235.337 36.9314 232.762 36.9314Z" fill="#FCEF8F"/>
<path d="M120.432 36.6765L119.421 35.3757C118.419 36.3865 117.224 36.905 115.853 36.905C113.629 36.905 112.074 35.4548 112.074 33.3894C112.074 32.0007 112.83 30.823 114.377 29.8123L114.781 29.5398C113.814 28.3621 113.357 27.3601 113.357 26.446C113.357 24.8376 114.526 23.7302 116.196 23.7302C117.848 23.7302 119 24.8376 119 26.446C119 27.7205 118.376 28.6257 116.635 29.7683L119.369 33.2048C119.694 32.4402 119.861 31.5349 119.896 30.3572V30.2781H121.17V30.4099C121.118 31.9656 120.81 33.2488 120.212 34.2947L122.172 36.6765H120.432ZM116.187 24.9607C115.326 24.9607 114.675 25.6023 114.675 26.4636C114.675 27.1755 115.009 27.8523 115.888 28.907C117.259 28.0017 117.699 27.3953 117.699 26.4636C117.699 25.6023 117.048 24.9607 116.187 24.9607ZM115.176 30.7351C114.016 31.4558 113.48 32.282 113.48 33.3191C113.48 34.6814 114.456 35.5955 115.906 35.5955C117.04 35.5955 118.015 35.1824 118.657 34.4177L115.528 30.5066L115.176 30.7351Z" fill="#D56565"/>
</svg>
