<svg width="400" height="52" viewBox="0 0 395 52" fill="none" xmlns="http://www.w3.org/2000/svg">
<path d="M0 8.5587C0 3.95362 3.73316 0.220459 8.33824 0.220459H385.941C390.546 0.220459 394.279 3.95361 394.279 8.55869V33.5734C394.279 43.4414 386.28 51.4411 376.412 51.4411H17.8677C7.99962 51.4411 0 43.4414 0 33.5734V8.5587Z" fill="#96ADC6"/>
<path d="M141.116 32.7058L136.044 18.4379H138.456L142.283 30.0856H142.421L146.248 18.4379H148.66L143.578 32.7058H141.116ZM150.628 32.7058V22.0568H152.784V32.7058H150.628ZM151.716 20.2275C151.353 20.2275 151.04 20.099 150.776 19.8419C150.519 19.5848 150.391 19.2783 150.391 18.9224C150.391 18.5532 150.519 18.2434 150.776 17.9929C151.04 17.7358 151.353 17.6073 151.716 17.6073C152.078 17.6073 152.388 17.7358 152.645 17.9929C152.902 18.2434 153.031 18.5532 153.031 18.9224C153.031 19.2783 152.902 19.5848 152.645 19.8419C152.388 20.099 152.078 20.2275 151.716 20.2275ZM160.14 32.9135C159.099 32.9135 158.202 32.6893 157.451 32.2411C156.706 31.7928 156.132 31.1567 155.73 30.3328C155.328 29.5088 155.127 28.5365 155.127 27.4159V27.406C155.127 26.292 155.328 25.3197 155.73 24.4891C156.132 23.6586 156.699 23.0126 157.431 22.5511C158.169 22.0831 159.036 21.8491 160.031 21.8491C161.02 21.8491 161.874 22.0732 162.592 22.5215C163.311 22.9697 163.864 23.5959 164.253 24.4001C164.642 25.1978 164.837 26.1305 164.837 27.1984V27.9399H156.215V26.4073H163.769L162.731 27.8312V26.9808C162.731 26.2228 162.615 25.5966 162.385 25.1022C162.16 24.6012 161.844 24.2288 161.435 23.9849C161.033 23.7344 160.568 23.6091 160.041 23.6091C159.514 23.6091 159.042 23.741 158.627 24.0046C158.212 24.2617 157.886 24.6407 157.648 25.1417C157.411 25.6427 157.292 26.2557 157.292 26.9808V27.8312C157.292 28.5299 157.408 29.1265 157.638 29.6208C157.876 30.1152 158.212 30.4943 158.647 30.7579C159.082 31.0216 159.596 31.1534 160.189 31.1534C160.638 31.1534 161.027 31.0908 161.356 30.9656C161.686 30.8337 161.956 30.6689 162.167 30.4712C162.385 30.2668 162.536 30.0625 162.622 29.8582L162.651 29.7791H164.718L164.698 29.8779C164.613 30.2471 164.451 30.6129 164.214 30.9755C163.983 31.3314 163.677 31.6577 163.294 31.9543C162.918 32.2444 162.467 32.4784 161.94 32.6564C161.412 32.8278 160.812 32.9135 160.14 32.9135ZM169.138 32.7058L166.201 22.0568H168.357L170.275 30.313H170.403L172.599 22.0568H174.645L176.85 30.313H176.989L178.897 22.0568H181.033L178.106 32.7058H175.881L173.666 24.7561H173.538L171.333 32.7058H169.138ZM194.292 33.0222C192.961 33.0222 191.807 32.7223 190.831 32.1224C189.862 31.516 189.114 30.6558 188.587 29.5417C188.066 28.4277 187.806 27.1061 187.806 25.5768V25.5669C187.806 24.031 188.066 22.7093 188.587 21.6019C189.114 20.4879 189.862 19.631 190.831 19.0311C191.8 18.4247 192.951 18.1215 194.282 18.1215C195.337 18.1215 196.286 18.3258 197.13 18.7345C197.98 19.1432 198.676 19.7101 199.216 20.4352C199.757 21.1537 200.093 21.9843 200.225 22.9269V22.9961H198.02L198 22.917C197.855 22.3369 197.608 21.8359 197.258 21.4141C196.916 20.9922 196.49 20.6659 195.983 20.4352C195.482 20.2045 194.915 20.0891 194.282 20.0891C193.425 20.0891 192.68 20.3132 192.048 20.7615C191.421 21.2031 190.937 21.8326 190.594 22.65C190.251 23.4674 190.08 24.4364 190.08 25.557V25.5768C190.08 26.6974 190.251 27.6697 190.594 28.4937C190.937 29.311 191.425 29.9438 192.057 30.3921C192.69 30.8337 193.435 31.0546 194.292 31.0546C194.925 31.0546 195.492 30.9491 195.993 30.7382C196.5 30.5272 196.926 30.224 197.268 29.8285C197.618 29.4264 197.862 28.9485 198 28.3948L198.03 28.3354H200.235L200.225 28.4047C200.086 29.3275 199.747 30.135 199.206 30.8271C198.672 31.5193 197.984 32.0598 197.14 32.4487C196.303 32.8311 195.353 33.0222 194.292 33.0222ZM202.746 32.7058V17.9435H204.892V23.708H205.03C205.294 23.1279 205.686 22.6731 206.207 22.3435C206.734 22.0139 207.39 21.8491 208.174 21.8491C208.959 21.8491 209.628 22.0106 210.182 22.3336C210.735 22.6566 211.157 23.1213 211.447 23.7278C211.737 24.3276 211.882 25.0494 211.882 25.8932V32.7058H209.737V26.3777C209.737 25.4944 209.542 24.8286 209.153 24.3804C208.771 23.9255 208.191 23.6981 207.413 23.6981C206.899 23.6981 206.454 23.8135 206.078 24.0442C205.703 24.2683 205.409 24.588 205.198 25.0033C204.994 25.4186 204.892 25.9097 204.892 26.4766V32.7058H202.746ZM217.607 32.8937C216.928 32.8937 216.322 32.7618 215.788 32.4982C215.254 32.2345 214.835 31.8654 214.532 31.3907C214.229 30.9095 214.077 30.3459 214.077 29.7V29.6802C214.077 29.054 214.232 28.5134 214.542 28.0586C214.852 27.6038 215.303 27.2478 215.897 26.9907C216.49 26.7336 217.209 26.5787 218.052 26.526L222.007 26.2887V27.8015L218.339 28.0388C217.627 28.0784 217.096 28.2333 216.747 28.5035C216.398 28.7672 216.223 29.1331 216.223 29.6011V29.6208C216.223 30.1086 216.408 30.491 216.777 30.7678C217.146 31.0381 217.617 31.1732 218.191 31.1732C218.718 31.1732 219.186 31.0677 219.595 30.8568C220.01 30.6459 220.336 30.3591 220.574 29.9966C220.811 29.6274 220.93 29.2155 220.93 28.7606V25.4581C220.93 24.8715 220.745 24.4199 220.376 24.1035C220.013 23.7871 219.479 23.6289 218.774 23.6289C218.174 23.6289 217.686 23.741 217.311 23.9651C216.935 24.1892 216.684 24.4957 216.559 24.8846L216.549 24.9341H214.493L214.503 24.855C214.582 24.2617 214.809 23.741 215.185 23.2927C215.561 22.8379 216.062 22.4852 216.688 22.2347C217.314 21.9777 218.039 21.8491 218.863 21.8491C219.753 21.8491 220.511 21.9941 221.137 22.2842C221.763 22.5676 222.241 22.9763 222.571 23.5103C222.901 24.0376 223.065 24.6704 223.065 25.4087V32.7058H220.93V31.1534H220.791C220.587 31.516 220.326 31.8291 220.01 32.0928C219.694 32.3499 219.331 32.5476 218.922 32.686C218.52 32.8245 218.082 32.8937 217.607 32.8937ZM225.834 32.7058V22.0568H227.98V23.6685H228.108C228.378 23.1082 228.771 22.6665 229.285 22.3435C229.805 22.0139 230.458 21.8491 231.242 21.8491C232.429 21.8491 233.339 22.1952 233.971 22.8873C234.611 23.5795 234.931 24.5551 234.931 25.8141V32.7058H232.785V26.2887C232.785 25.4252 232.597 24.7792 232.221 24.3507C231.852 23.9156 231.279 23.6981 230.501 23.6981C229.987 23.6981 229.538 23.8135 229.156 24.0442C228.78 24.2683 228.49 24.588 228.286 25.0033C228.082 25.412 227.98 25.8998 227.98 26.4667V32.7058H225.834ZM237.679 32.7058V22.0568H239.825V23.6685H239.953C240.224 23.1082 240.616 22.6665 241.13 22.3435C241.651 22.0139 242.303 21.8491 243.088 21.8491C244.274 21.8491 245.184 22.1952 245.817 22.8873C246.456 23.5795 246.776 24.5551 246.776 25.8141V32.7058H244.63V26.2887C244.63 25.4252 244.443 24.7792 244.067 24.3507C243.698 23.9156 243.124 23.6981 242.346 23.6981C241.832 23.6981 241.384 23.8135 241.002 24.0442C240.626 24.2683 240.336 24.588 240.131 25.0033C239.927 25.412 239.825 25.8998 239.825 26.4667V32.7058H237.679ZM254.014 32.9135C252.972 32.9135 252.076 32.6893 251.324 32.2411C250.579 31.7928 250.006 31.1567 249.604 30.3328C249.202 29.5088 249.001 28.5365 249.001 27.4159V27.406C249.001 26.292 249.202 25.3197 249.604 24.4891C250.006 23.6586 250.573 23.0126 251.305 22.5511C252.043 22.0831 252.91 21.8491 253.905 21.8491C254.894 21.8491 255.747 22.0732 256.466 22.5215C257.184 22.9697 257.738 23.5959 258.127 24.4001C258.516 25.1978 258.71 26.1305 258.71 27.1984V27.9399H250.088V26.4073H257.643L256.604 27.8312V26.9808C256.604 26.2228 256.489 25.5966 256.258 25.1022C256.034 24.6012 255.718 24.2288 255.309 23.9849C254.907 23.7344 254.442 23.6091 253.915 23.6091C253.388 23.6091 252.916 23.741 252.501 24.0046C252.086 24.2617 251.759 24.6407 251.522 25.1417C251.285 25.6427 251.166 26.2557 251.166 26.9808V27.8312C251.166 28.5299 251.282 29.1265 251.512 29.6208C251.75 30.1152 252.086 30.4943 252.521 30.7579C252.956 31.0216 253.47 31.1534 254.063 31.1534C254.511 31.1534 254.9 31.0908 255.23 30.9656C255.56 30.8337 255.83 30.6689 256.041 30.4712C256.258 30.2668 256.41 30.0625 256.496 29.8582L256.525 29.7791H258.592L258.572 29.8779C258.486 30.2471 258.325 30.6129 258.088 30.9755C257.857 31.3314 257.55 31.6577 257.168 31.9543C256.792 32.2444 256.341 32.4784 255.813 32.6564C255.286 32.8278 254.686 32.9135 254.014 32.9135ZM261.103 32.7058V17.9435H263.249V32.7058H261.103Z" fill="white"/>
<path d="M378.794 15.7059L385.941 8.55884M385.941 8.55884V15.7059M385.941 8.55884H378.794" stroke="white" stroke-width="2.02195" stroke-linecap="round" stroke-linejoin="round"/>
</svg>
